<svg xmlns="http://www.w3.org/2000/svg" xmlns:xlink="http://www.w3.org/1999/xlink" width="270" zoomAndPan="magnify" viewBox="0 0 202.5 39.749999" height="53" preserveAspectRatio="xMidYMid meet" version="1.0"><defs><clipPath id="5b5db461a0"><path d="M 4.257812 4.109375 L 56.507812 4.109375 L 56.507812 36.726562 L 4.257812 36.726562 Z M 4.257812 4.109375 " clip-rule="nonzero"/></clipPath><clipPath id="ec1dcdba78"><path d="M 1 31.125 L 7.890625 31.125 L 7.890625 36.726562 L 1 36.726562 Z M 1 31.125 " clip-rule="nonzero"/></clipPath><clipPath id="ca405e915a"><path d="M 192 27 L 201.617188 27 L 201.617188 37 L 192 37 Z M 192 27 " clip-rule="nonzero"/></clipPath></defs><g clip-path="url(#5b5db461a0)"><path fill="#ff8200" d="M 30.96875 5.96875 C 30.898438 5.886719 30.8125 5.832031 30.722656 5.832031 C 30.628906 5.832031 30.539062 5.886719 30.472656 5.96875 C 30.386719 6.078125 30.332031 6.234375 30.332031 6.40625 C 30.332031 6.578125 30.386719 6.730469 30.472656 6.84375 C 30.539062 6.921875 30.628906 6.980469 30.722656 6.980469 C 30.8125 6.980469 30.898438 6.921875 30.96875 6.84375 C 31.058594 6.730469 31.113281 6.578125 31.113281 6.40625 C 31.113281 6.234375 31.058594 6.078125 30.96875 5.96875 Z M 37.484375 4.992188 C 37.417969 4.910156 37.328125 4.855469 37.238281 4.855469 C 37.144531 4.855469 37.054688 4.910156 36.984375 4.992188 C 36.902344 5.101562 36.847656 5.253906 36.847656 5.429688 C 36.847656 5.605469 36.902344 5.757812 36.984375 5.867188 C 37.054688 5.949219 37.144531 6.003906 37.238281 6.003906 C 37.328125 6.003906 37.417969 5.949219 37.484375 5.867188 C 37.574219 5.757812 37.628906 5.605469 37.628906 5.429688 C 37.628906 5.253906 37.574219 5.101562 37.484375 4.992188 Z M 36.433594 6.347656 C 35.3125 6.523438 34.074219 6.726562 32.949219 6.925781 C 32.484375 7.007812 32.046875 7.085938 31.648438 7.15625 C 31.621094 7.207031 31.582031 7.25 31.546875 7.296875 C 31.34375 7.554688 31.050781 7.710938 30.722656 7.710938 C 30.453125 7.710938 30.207031 7.605469 30.015625 7.425781 C 29.824219 7.457031 29.714844 7.476562 29.714844 7.480469 C 29.6875 7.566406 29.664062 7.773438 29.667969 8.007812 C 29.671875 8.179688 29.695312 8.347656 29.738281 8.460938 C 29.746094 8.476562 29.757812 8.488281 29.777344 8.496094 C 32.730469 8.035156 36.589844 7.449219 39.484375 7.386719 C 40.109375 7.375 45.511719 7.640625 47.457031 7.738281 C 47.492188 7.722656 47.511719 7.695312 47.503906 7.652344 C 47.484375 7.535156 47.382812 7.394531 47.230469 7.246094 C 47.050781 7.054688 46.792969 6.859375 46.515625 6.652344 C 46 6.269531 41.972656 6.015625 40.460938 5.921875 C 40.195312 5.90625 40.011719 5.894531 39.902344 5.882812 C 39.785156 5.871094 39.136719 5.953125 38.21875 6.082031 C 38.171875 6.167969 38.121094 6.25 38.066406 6.324219 C 37.859375 6.574219 37.566406 6.734375 37.238281 6.734375 C 36.921875 6.734375 36.640625 6.589844 36.433594 6.347656 Z M 39.554688 17.386719 L 40.097656 17.589844 C 40.242188 16.921875 40.617188 15.363281 40.945312 14.933594 C 41.371094 14.382812 44.742188 14.449219 45.082031 14.59375 C 45.324219 14.699219 45.402344 16.117188 45.429688 16.945312 L 45.433594 16.945312 L 46.441406 16.898438 L 46.066406 9.34375 C 44.613281 9.46875 42.285156 9.625 40.632812 9.742188 C 40.285156 11.925781 40.023438 14.128906 39.832031 16.324219 C 39.792969 16.785156 39.6875 17.140625 39.554688 17.386719 Z M 38.515625 17.160156 L 38.589844 17.175781 C 38.53125 16.910156 38.507812 16.570312 38.546875 16.140625 C 38.730469 14.03125 38.984375 11.933594 39.308594 9.847656 C 38.976562 9.875 38.757812 9.898438 38.699219 9.910156 C 38.4375 9.976562 37.824219 9.921875 37.324219 9.878906 C 36.800781 11.539062 36.476562 13.285156 36.324219 14.808594 C 36.230469 15.707031 35.644531 15.675781 35.695312 14.761719 C 35.765625 13.496094 35.953125 10.699219 36.152344 9.800781 C 34.363281 9.597656 32.550781 9.265625 30.765625 9.125 C 30.492188 10.324219 30.246094 11.542969 30.046875 12.792969 C 29.871094 13.878906 29.726562 14.976562 29.609375 16.097656 C 31.917969 15.910156 33.328125 15.785156 35.714844 15.910156 C 37.378906 15.992188 37.902344 15.902344 38.515625 17.160156 Z M 29.515625 28.714844 L 29.480469 28.765625 L 29.488281 28.816406 C 29.496094 28.78125 29.507812 28.746094 29.515625 28.714844 Z M 43.363281 33.300781 C 43.144531 32.882812 42.953125 32.410156 42.792969 31.902344 L 39.023438 31.902344 C 39.136719 30.359375 38.746094 28.792969 38.007812 27.882812 C 38.339844 28.738281 38.535156 29.746094 38.535156 30.824219 C 38.535156 32.066406 38.277344 33.21875 37.847656 34.148438 C 38.222656 33.910156 38.734375 33.574219 38.832031 33.472656 C 38.976562 33.3125 43.363281 33.300781 43.363281 33.300781 Z M 25.90625 23.925781 L 26.503906 23.925781 L 26.503906 22.472656 C 26.503906 20.648438 26.972656 20.417969 28.578125 19.589844 C 29.65625 19.035156 30.472656 18.667969 32.457031 17.996094 C 34.089844 17.441406 35.316406 17.167969 36.148438 17.035156 C 31.074219 16.707031 28.574219 17.03125 23.457031 18.789062 C 21.8125 19.351562 20.238281 19.988281 18.816406 20.765625 C 20.425781 20.722656 24.621094 20.640625 25.1875 20.914062 C 25.933594 21.277344 25.921875 23.019531 25.90625 23.925781 Z M 22.8125 23.925781 L 24.449219 23.925781 C 24.4375 23.257812 24.363281 22.386719 23.757812 22.082031 C 23.632812 22.015625 23.3125 21.96875 22.882812 21.941406 Z M 20.101562 23.925781 L 21.53125 23.925781 L 21.601562 21.894531 C 21.144531 21.886719 20.652344 21.882812 20.171875 21.886719 Z M 6.535156 36.539062 L 4.285156 35.941406 L 6.988281 32.484375 L 7.304688 26.824219 C 7.457031 24.125 7.800781 23.925781 10.863281 23.925781 L 13.175781 23.925781 L 17.6875 20.351562 L 17.707031 20.34375 C 19.339844 19.375 21.195312 18.597656 23.15625 17.925781 C 24.835938 17.351562 26.570312 16.855469 28.28125 16.382812 C 28.410156 15.082031 28.570312 13.820312 28.769531 12.59375 C 28.957031 11.414062 29.179688 10.261719 29.429688 9.152344 C 29.179688 9.066406 28.9375 8.949219 28.875 8.789062 C 28.789062 8.5625 28.75 8.285156 28.746094 8.019531 C 28.738281 7.695312 28.78125 7.367188 28.839844 7.195312 C 28.886719 7.050781 29.175781 6.90625 29.632812 6.75 C 29.605469 6.640625 29.589844 6.527344 29.589844 6.40625 C 29.589844 6.058594 29.707031 5.746094 29.898438 5.507812 C 30.101562 5.257812 30.394531 5.101562 30.722656 5.101562 C 30.761719 5.101562 30.804688 5.101562 30.839844 5.105469 C 30.9375 5.117188 31.03125 5.144531 31.117188 5.183594 C 31.644531 5.328125 32.761719 5.648438 33.027344 5.863281 C 33.070312 5.894531 33.101562 5.933594 33.117188 5.96875 C 34.089844 5.796875 35.136719 5.625 36.105469 5.480469 C 36.105469 5.460938 36.105469 5.445312 36.105469 5.429688 C 36.105469 5.085938 36.222656 4.765625 36.414062 4.535156 C 36.621094 4.28125 36.910156 4.125 37.238281 4.125 C 37.246094 4.125 37.253906 4.125 37.265625 4.125 L 37.253906 4.109375 C 37.253906 4.109375 37.277344 4.117188 37.320312 4.128906 C 37.445312 4.136719 37.5625 4.171875 37.671875 4.21875 C 38.238281 4.378906 39.199219 4.671875 39.449219 4.863281 C 39.5 4.910156 39.535156 4.953125 39.546875 5.003906 C 39.773438 4.980469 39.925781 4.96875 39.980469 4.972656 C 40.027344 4.980469 40.230469 4.988281 40.515625 5.011719 C 42.109375 5.105469 46.335938 5.371094 47.074219 5.921875 C 47.375 6.148438 47.664062 6.367188 47.898438 6.609375 C 48.167969 6.882812 48.363281 7.171875 48.414062 7.507812 C 48.453125 7.71875 48.269531 7.996094 48.050781 8.265625 C 47.984375 8.503906 47.878906 8.78125 47.710938 8.96875 L 48.125 17.183594 L 48.363281 18.035156 C 48.363281 18.035156 45.316406 17.523438 43.246094 19.714844 C 41.171875 21.910156 41.132812 24.246094 41.25 24.558594 C 41.363281 24.863281 43.785156 24.734375 43.980469 24.6875 C 44.175781 24.636719 44.621094 19.964844 47.527344 19.21875 C 49.496094 18.710938 50.898438 19.183594 51.753906 19.90625 C 52.390625 20.445312 52.679688 21.101562 52.917969 21.878906 C 53.1875 22.777344 52.054688 22.84375 51.707031 22.734375 C 51.675781 22.722656 51.621094 22.707031 51.53125 22.683594 C 52.242188 24.035156 52.625 25.914062 52.625 27.957031 C 52.625 30.085938 52.167969 32 51.433594 33.375 L 52.582031 34.167969 C 52.582031 34.167969 53.382812 32.953125 53.839844 32.90625 C 54.300781 32.855469 56.394531 34.976562 56.492188 35.234375 C 56.589844 35.496094 56.167969 36.222656 56.015625 36.367188 C 55.871094 36.515625 54.171875 36.726562 54.171875 36.726562 C 38.160156 36.726562 22.511719 36.695312 6.535156 36.539062 Z M 27.65625 24.234375 C 27.707031 24.425781 27.742188 24.464844 27.789062 24.960938 C 27.835938 25.460938 27.953125 36.003906 27.953125 36.003906 L 28.910156 35.972656 L 28.722656 35.398438 C 28.667969 34.199219 28.589844 30.128906 28.40625 27.3125 C 28.285156 25.425781 28.230469 24.308594 27.65625 24.234375 Z M 24.453125 35.621094 L 25.332031 33.273438 C 23.140625 33.253906 10 33.109375 9.71875 33.039062 C 9.40625 32.953125 9.027344 32.808594 9.027344 32.808594 L 25.558594 32.273438 L 26.152344 25.082031 L 10.941406 25.082031 C 8.757812 25.082031 8.675781 25.003906 8.539062 27.328125 L 8.226562 32.820312 L 5.867188 35.414062 L 6.648438 35.621094 Z M 16.976562 23.925781 C 17.097656 23.265625 17.367188 22.003906 17.667969 21.835938 L 17.621094 21.9375 C 17.929688 21.925781 18.375 21.914062 18.890625 21.90625 L 18.820312 23.925781 Z M 49.195312 22.90625 C 50.382812 22.90625 51.347656 25.195312 51.347656 28.007812 C 51.347656 30.824219 50.382812 33.109375 49.195312 33.109375 C 48.003906 33.109375 47.039062 30.824219 47.039062 28.007812 C 47.039062 27.71875 47.050781 27.429688 47.070312 27.152344 C 47.597656 27.238281 48.015625 27.992188 48.015625 28.910156 C 48.015625 29.601562 47.78125 30.199219 47.4375 30.488281 C 47.660156 30.6875 47.910156 30.800781 48.179688 30.800781 C 49.050781 30.800781 49.761719 29.601562 49.761719 28.128906 C 49.761719 26.652344 49.050781 25.457031 48.179688 25.457031 C 47.816406 25.457031 47.480469 25.664062 47.210938 26.015625 C 47.539062 24.191406 48.304688 22.90625 49.195312 22.90625 Z M 35.460938 27.085938 C 36.527344 27.085938 37.390625 28.777344 37.390625 30.867188 C 37.390625 32.953125 36.527344 34.644531 35.460938 34.644531 C 34.398438 34.644531 33.539062 32.953125 33.539062 30.867188 C 33.539062 30.570312 33.554688 30.28125 33.589844 30.007812 C 33.996094 30.070312 34.3125 30.648438 34.3125 31.351562 C 34.3125 31.882812 34.132812 32.339844 33.867188 32.5625 C 34.039062 32.714844 34.230469 32.800781 34.433594 32.800781 C 35.105469 32.800781 35.648438 31.886719 35.648438 30.753906 C 35.648438 29.625 35.105469 28.707031 34.433594 28.707031 C 34.195312 28.707031 33.96875 28.828125 33.777344 29.035156 C 34.109375 27.871094 34.738281 27.085938 35.460938 27.085938 Z M 36.929688 19.492188 C 35.355469 19.929688 32.675781 20.675781 32.191406 20.855469 C 31.507812 21.117188 30.675781 22.070312 30.675781 22.070312 L 28.660156 24.300781 L 29.097656 24.296875 L 29.171875 25.171875 C 29.730469 24.496094 31.664062 22.152344 32 21.765625 C 32.390625 21.3125 32.964844 21.183594 32.964844 21.183594 L 37.933594 19.871094 L 36.929688 19.492188 " fill-opacity="1" fill-rule="evenodd"/></g><path fill="#ff8200" d="M 29.351562 27.242188 C 29.628906 26.699219 30.148438 25.972656 31.078125 25.476562 C 31.457031 25.273438 31.84375 25.164062 32.21875 25.113281 C 32.988281 25.003906 33.699219 25.144531 34.132812 25.273438 C 33.742188 25.265625 33.34375 25.292969 32.96875 25.351562 C 30.972656 25.667969 29.925781 27.101562 29.488281 28.816406 L 29.351562 27.242188 " fill-opacity="1" fill-rule="evenodd"/><g clip-path="url(#ec1dcdba78)"><path fill="#ff8200" d="M 6.640625 36.539062 L 1.046875 36.539062 C 1.046875 36.539062 3.519531 31.917969 4.59375 31.773438 C 5.675781 31.628906 7.199219 32.597656 7.199219 32.597656 L 5.300781 35.707031 L 6.640625 36.539062 " fill-opacity="1" fill-rule="evenodd"/></g><path fill="#ff8200" d="M 8.605469 35.851562 C 8.605469 35.851562 10.292969 34.648438 10.46875 34.648438 C 10.648438 34.648438 11.78125 35.25 11.78125 35.25 L 13.164062 34.691406 L 14.90625 33.875 C 14.90625 33.875 16.472656 34.398438 16.597656 34.472656 C 16.714844 34.554688 17.671875 35.058594 17.671875 35.058594 L 19.203125 34.554688 L 21.1875 35.988281 L 8.605469 35.851562 " fill-opacity="1" fill-rule="evenodd"/><path fill="#0e0d37" d="M 69.464844 15.226562 C 69.507812 15.253906 69.609375 15.304688 69.769531 15.386719 C 69.929688 15.464844 70.125 15.546875 70.355469 15.625 C 70.585938 15.707031 70.851562 15.777344 71.15625 15.839844 C 71.464844 15.902344 71.785156 15.933594 72.117188 15.933594 C 72.601562 15.933594 72.996094 15.851562 73.289062 15.691406 C 73.589844 15.53125 73.816406 15.277344 73.96875 14.933594 C 74.128906 14.578125 74.226562 14.125 74.273438 13.574219 C 74.316406 13.015625 74.339844 12.335938 74.339844 11.535156 L 74.339844 3.074219 L 78.925781 3.074219 L 78.925781 11.535156 C 78.925781 12.808594 78.851562 13.960938 78.710938 15 C 78.566406 16.039062 78.261719 16.929688 77.792969 17.664062 C 77.320312 18.402344 76.636719 18.976562 75.738281 19.382812 C 74.839844 19.78125 73.632812 19.984375 72.117188 19.984375 C 70.710938 19.984375 69.507812 19.644531 68.503906 18.957031 Z M 69.464844 15.226562 " fill-opacity="1" fill-rule="nonzero"/><path fill="#0e0d37" d="M 92.035156 19.730469 L 91.144531 18.796875 C 90.46875 19.195312 89.765625 19.496094 89.039062 19.6875 C 88.320312 19.875 87.589844 19.96875 86.851562 19.96875 C 85.882812 19.96875 85.035156 19.8125 84.308594 19.503906 C 83.578125 19.183594 82.964844 18.777344 82.46875 18.277344 C 81.980469 17.769531 81.609375 17.203125 81.363281 16.570312 C 81.113281 15.941406 80.988281 15.304688 80.988281 14.667969 C 80.988281 13.707031 81.21875 12.878906 81.683594 12.1875 C 82.144531 11.488281 82.695312 10.878906 83.335938 10.363281 C 82.828125 9.757812 82.472656 9.214844 82.269531 8.738281 C 82.074219 8.257812 81.976562 7.730469 81.976562 7.152344 C 81.976562 6.476562 82.097656 5.871094 82.347656 5.339844 C 82.59375 4.800781 82.933594 4.351562 83.363281 3.992188 C 83.792969 3.628906 84.3125 3.351562 84.90625 3.152344 C 85.5 2.960938 86.148438 2.859375 86.851562 2.859375 C 87.464844 2.859375 88.066406 2.9375 88.652344 3.085938 C 89.238281 3.230469 89.761719 3.460938 90.222656 3.78125 C 90.683594 4.101562 91.054688 4.519531 91.328125 5.03125 C 91.613281 5.539062 91.757812 6.152344 91.757812 6.871094 C 91.757812 7.71875 91.558594 8.476562 91.167969 9.148438 C 90.777344 9.824219 90.253906 10.441406 89.597656 11.003906 L 91.515625 13.039062 C 91.691406 12.609375 91.824219 12.132812 91.914062 11.628906 C 92.011719 11.117188 92.0625 10.558594 92.0625 9.960938 L 95.648438 9.960938 C 95.636719 11.171875 95.5 12.261719 95.234375 13.226562 C 94.96875 14.1875 94.609375 15.050781 94.15625 15.8125 L 97.886719 19.730469 Z M 87.320312 16.492188 C 87.789062 16.492188 88.25 16.390625 88.703125 16.183594 L 86.054688 13.347656 C 85.519531 13.785156 85.253906 14.222656 85.253906 14.667969 C 85.253906 14.835938 85.289062 15.027344 85.359375 15.238281 C 85.429688 15.453125 85.546875 15.652344 85.707031 15.839844 C 85.875 16.023438 86.09375 16.183594 86.359375 16.304688 C 86.625 16.429688 86.945312 16.492188 87.320312 16.492188 Z M 86 6.964844 C 86 7.171875 86.054688 7.347656 86.171875 7.496094 C 86.296875 7.640625 86.5 7.84375 86.785156 8.109375 C 87.097656 7.898438 87.324219 7.710938 87.464844 7.550781 C 87.605469 7.382812 87.679688 7.171875 87.679688 6.910156 C 87.679688 6.65625 87.601562 6.457031 87.453125 6.3125 C 87.300781 6.171875 87.097656 6.097656 86.851562 6.097656 C 86.585938 6.097656 86.375 6.183594 86.226562 6.351562 C 86.074219 6.511719 86 6.71875 86 6.964844 Z M 86 6.964844 " fill-opacity="1" fill-rule="nonzero"/><path fill="#0e0d37" d="M 98.910156 15.226562 C 98.953125 15.253906 99.058594 15.304688 99.21875 15.386719 C 99.378906 15.464844 99.570312 15.546875 99.804688 15.625 C 100.035156 15.707031 100.300781 15.777344 100.605469 15.839844 C 100.914062 15.902344 101.234375 15.933594 101.5625 15.933594 C 102.050781 15.933594 102.441406 15.851562 102.734375 15.691406 C 103.035156 15.53125 103.261719 15.277344 103.414062 14.933594 C 103.574219 14.578125 103.675781 14.125 103.722656 13.574219 C 103.765625 13.015625 103.789062 12.335938 103.789062 11.535156 L 103.789062 3.074219 L 108.371094 3.074219 L 108.371094 11.535156 C 108.371094 12.808594 108.296875 13.960938 108.160156 15 C 108.015625 16.039062 107.707031 16.929688 107.238281 17.664062 C 106.765625 18.402344 106.082031 18.976562 105.1875 19.382812 C 104.289062 19.78125 103.082031 19.984375 101.5625 19.984375 C 100.15625 19.984375 98.953125 19.644531 97.953125 18.957031 Z M 98.910156 15.226562 " fill-opacity="1" fill-rule="nonzero"/><path fill="#0e0d37" d="M 65.660156 36.726562 L 67.21875 27.917969 L 73.960938 27.917969 L 73.628906 29.730469 L 69.152344 29.730469 L 68.859375 31.355469 L 72.910156 31.355469 L 72.617188 33.050781 L 68.566406 33.050781 L 68.246094 34.914062 L 72.722656 34.914062 L 72.402344 36.726562 Z M 65.660156 36.726562 " fill-opacity="1" fill-rule="nonzero"/><path fill="#0e0d37" d="M 76.421875 37.777344 L 76.605469 36.726562 L 74.859375 36.726562 L 73.769531 35.394531 L 74.847656 29.238281 L 76.40625 27.917969 L 81.617188 27.917969 L 82.710938 29.238281 L 81.628906 35.394531 L 80.070312 36.726562 L 78.3125 36.726562 L 78.125 37.777344 Z M 76.511719 35.035156 L 76.964844 35.035156 L 77.140625 34.101562 L 78.738281 34.101562 L 78.578125 35.035156 L 79.03125 35.035156 L 79.511719 34.609375 L 80.324219 30.039062 L 79.964844 29.609375 L 77.472656 29.609375 L 76.964844 30.039062 L 76.152344 34.609375 Z M 76.511719 35.035156 " fill-opacity="1" fill-rule="nonzero"/><path fill="#0e0d37" d="M 84 36.726562 L 82.933594 35.394531 L 84.253906 27.917969 L 86.519531 27.917969 L 85.332031 34.609375 L 85.679688 35.035156 L 88.105469 35.035156 L 88.597656 34.609375 L 89.78125 27.917969 L 92.035156 27.917969 L 90.714844 35.394531 L 89.15625 36.726562 Z M 84 36.726562 " fill-opacity="1" fill-rule="nonzero"/><path fill="#0e0d37" d="M 91.667969 36.726562 L 91.972656 35.046875 L 92.933594 35.046875 L 93.878906 29.597656 L 92.921875 29.597656 L 93.226562 27.917969 L 97.332031 27.917969 L 97.039062 29.597656 L 96.066406 29.597656 L 95.09375 35.046875 L 96.078125 35.046875 L 95.785156 36.726562 Z M 91.667969 36.726562 " fill-opacity="1" fill-rule="nonzero"/><path fill="#0e0d37" d="M 97.03125 36.726562 L 98.589844 27.917969 L 104.519531 27.917969 L 105.625 29.238281 L 105.027344 32.636719 L 103.46875 33.96875 L 99.777344 33.96875 L 99.296875 36.726562 Z M 100.082031 32.261719 L 102.480469 32.261719 L 102.972656 31.851562 L 103.292969 30.039062 L 102.949219 29.609375 L 100.550781 29.609375 Z M 100.082031 32.261719 " fill-opacity="1" fill-rule="nonzero"/><path fill="#0e0d37" d="M 105.246094 36.726562 L 106.808594 27.917969 L 108.925781 27.917969 L 110.230469 33.222656 L 113.414062 27.917969 L 115.746094 27.917969 L 114.203125 36.726562 L 112.097656 36.726562 L 112.949219 31.890625 L 110.3125 36.339844 L 109.257812 36.339844 L 108.207031 31.890625 L 107.351562 36.726562 Z M 105.246094 36.726562 " fill-opacity="1" fill-rule="nonzero"/><path fill="#0e0d37" d="M 115.804688 36.726562 L 117.363281 27.917969 L 124.105469 27.917969 L 123.773438 29.730469 L 119.292969 29.730469 L 119 31.355469 L 123.050781 31.355469 L 122.757812 33.050781 L 118.707031 33.050781 L 118.390625 34.914062 L 122.867188 34.914062 L 122.546875 36.726562 Z M 115.804688 36.726562 " fill-opacity="1" fill-rule="nonzero"/><path fill="#0e0d37" d="M 123.914062 36.726562 L 125.472656 27.917969 L 127.789062 27.917969 L 129.910156 33.433594 L 130.894531 27.917969 L 133 27.917969 L 131.441406 36.726562 L 129.335938 36.726562 L 127.351562 31.554688 L 126.925781 31.554688 L 126.019531 36.726562 Z M 123.914062 36.726562 " fill-opacity="1" fill-rule="nonzero"/><path fill="#0e0d37" d="M 134.742188 36.726562 L 135.980469 29.730469 L 133.515625 29.730469 L 133.835938 27.917969 L 141.015625 27.917969 L 140.695312 29.730469 L 138.230469 29.730469 L 137.003906 36.726562 Z M 134.742188 36.726562 " fill-opacity="1" fill-rule="nonzero"/><path fill="#0e0d37" d="M 143.234375 36.726562 L 144.792969 27.917969 L 150.828125 27.917969 L 151.949219 29.238281 L 151.390625 32.394531 L 150.136719 33.449219 L 150.898438 36.726562 L 148.75 36.726562 L 148.125 33.726562 L 146.019531 33.726562 L 145.5 36.726562 Z M 146.3125 32.023438 L 148.832031 32.023438 L 149.324219 31.609375 L 149.605469 30.039062 L 149.257812 29.609375 L 146.753906 29.609375 Z M 146.3125 32.023438 " fill-opacity="1" fill-rule="nonzero"/><path fill="#0e0d37" d="M 152.082031 36.726562 L 153.640625 27.917969 L 160.382812 27.917969 L 160.050781 29.730469 L 155.574219 29.730469 L 155.28125 31.355469 L 159.332031 31.355469 L 159.039062 33.050781 L 154.988281 33.050781 L 154.667969 34.914062 L 159.144531 34.914062 L 158.824219 36.726562 Z M 152.082031 36.726562 " fill-opacity="1" fill-rule="nonzero"/><path fill="#0e0d37" d="M 160.191406 36.726562 L 161.75 27.917969 L 164.070312 27.917969 L 166.1875 33.433594 L 167.175781 27.917969 L 169.28125 27.917969 L 167.722656 36.726562 L 165.617188 36.726562 L 163.628906 31.554688 L 163.203125 31.554688 L 162.296875 36.726562 Z M 160.191406 36.726562 " fill-opacity="1" fill-rule="nonzero"/><path fill="#0e0d37" d="M 171.019531 36.726562 L 172.257812 29.730469 L 169.792969 29.730469 L 170.113281 27.917969 L 177.296875 27.917969 L 176.976562 29.730469 L 174.511719 29.730469 L 173.285156 36.726562 Z M 171.019531 36.726562 " fill-opacity="1" fill-rule="nonzero"/><path fill="#0e0d37" d="M 175.695312 36.726562 L 179.878906 27.917969 L 183.515625 27.917969 L 184.53125 36.726562 L 182.25 36.726562 L 182.117188 34.96875 L 178.972656 34.96875 L 178.242188 36.726562 Z M 179.679688 33.25 L 181.984375 33.25 L 181.691406 29.597656 L 181.265625 29.597656 Z M 179.679688 33.25 " fill-opacity="1" fill-rule="nonzero"/><path fill="#0e0d37" d="M 185.367188 36.726562 L 186.925781 27.917969 L 189.175781 27.917969 L 187.949219 34.914062 L 192.015625 34.914062 L 191.695312 36.726562 Z M 185.367188 36.726562 " fill-opacity="1" fill-rule="nonzero"/><g clip-path="url(#ca405e915a)"><path fill="#0e0d37" d="M 192.691406 36.726562 L 193 34.925781 L 197.609375 34.925781 L 198.113281 34.515625 L 198.273438 33.542969 L 197.929688 33.117188 L 194.304688 33.117188 L 193.210938 31.78125 L 193.652344 29.238281 L 195.222656 27.917969 L 201.03125 27.917969 L 200.714844 29.703125 L 196.222656 29.703125 L 195.714844 30.132812 L 195.597656 30.902344 L 195.941406 31.328125 L 199.566406 31.328125 L 200.660156 32.648438 L 200.179688 35.394531 L 198.609375 36.726562 Z M 192.691406 36.726562 " fill-opacity="1" fill-rule="nonzero"/></g></svg>